<mxfile host="drawio-plugin" modified="2022-04-24T18:36:09.440Z" agent="5.0 (X11; Linux x86_64) AppleWebKit/537.36 (KHTML, like Gecko) Chrome/89.0.4389.90 Safari/537.36" version="15.5.4" etag="OR93RJCN37YPvnqjvLiZ" type="embed"><diagram id="rwRs7JcNQH9Kyp4-HBa0" name="Page-1"><mxGraphModel dx="983" dy="297" grid="1" gridSize="10" guides="1" tooltips="1" connect="1" arrows="1" fold="1" page="1" pageScale="1" pageWidth="827" pageHeight="1169" math="0" shadow="0"><root><mxCell id="0"/><mxCell id="1" parent="0"/><mxCell id="6" value="" style="edgeStyle=orthogonalEdgeStyle;rounded=0;orthogonalLoop=1;jettySize=auto;html=1;" edge="1" parent="1" source="2" target="4"><mxGeometry relative="1" as="geometry"/></mxCell><mxCell id="2" value="начало" style="rounded=1;whiteSpace=wrap;html=1;" vertex="1" parent="1"><mxGeometry x="354" y="20" width="120" height="30" as="geometry"/></mxCell><mxCell id="3" style="edgeStyle=orthogonalEdgeStyle;rounded=0;orthogonalLoop=1;jettySize=auto;html=1;exitX=0.5;exitY=1;exitDx=0;exitDy=0;" edge="1" parent="1" source="2" target="2"><mxGeometry relative="1" as="geometry"/></mxCell><mxCell id="7" value="" style="edgeStyle=orthogonalEdgeStyle;rounded=0;orthogonalLoop=1;jettySize=auto;html=1;" edge="1" parent="1" source="4" target="5"><mxGeometry relative="1" as="geometry"/></mxCell><mxCell id="4" value="Для каждого поста в posts вывести пост, в форме: index: post" style="rounded=0;whiteSpace=wrap;html=1;" vertex="1" parent="1"><mxGeometry x="354" y="80" width="120" height="60" as="geometry"/></mxCell><mxCell id="5" value="posts" style="rounded=1;whiteSpace=wrap;html=1;" vertex="1" parent="1"><mxGeometry x="354" y="170" width="120" height="30" as="geometry"/></mxCell></root></mxGraphModel></diagram></mxfile>